#usda 1.0
(
    defaultPrim = "Table"
    metersPerUnit = 1
    upAxis = "Y"
)

def Xform "Table" (
    kind = "component"
)
{
    def Scope "Materials"
    {
        def Material "Grout"
        {
            token outputs:surface.connect = </Table/Materials/Grout/Preview.outputs:surface>
            def Shader "Preview"
            {
                uniform token info:id = "UsdPreviewSurface"
                color3f inputs:diffuseColor = (0.830000, 0.810000, 0.750000)
                float inputs:metallic = 0
                float inputs:roughness = 0.7200
                token outputs:surface
            }
        }
        def Material "Wood"
        {
            token outputs:surface.connect = </Table/Materials/Wood/Preview.outputs:surface>
            def Shader "Preview"
            {
                uniform token info:id = "UsdPreviewSurface"
                color3f inputs:diffuseColor = (0.340000, 0.200000, 0.100000)
                float inputs:metallic = 0
                float inputs:roughness = 0.8200
                token outputs:surface
            }
        }
        def Material "Mat_green_17x10"
        {
            token outputs:surface.connect = </Table/Materials/Mat_green_17x10/Preview.outputs:surface>
            def Shader "Preview"
            {
                uniform token info:id = "UsdPreviewSurface"
                color3f inputs:diffuseColor.connect = </Table/Materials/Mat_green_17x10/BaseColor.outputs:rgb>
                float inputs:metallic = 0
                float inputs:roughness.connect = </Table/Materials/Mat_green_17x10/MetalRough.outputs:g>
                normal3f inputs:normal.connect = </Table/Materials/Mat_green_17x10/Normal.outputs:rgb>
                token outputs:surface
            }
            def Shader "Primvar"
            {
                uniform token info:id = "UsdPrimvarReader_float2"
                token inputs:varname = "st"
                float2 outputs:result
            }
            def Shader "BaseColor"
            {
                uniform token info:id = "UsdUVTexture"
                asset inputs:file = @textures/green-17x10-base.png@
                token inputs:sourceColorSpace = "sRGB"
                float2 inputs:st.connect = </Table/Materials/Mat_green_17x10/Primvar.outputs:result>
                float3 outputs:rgb
            }
            def Shader "MetalRough"
            {
                uniform token info:id = "UsdUVTexture"
                asset inputs:file = @textures/green-17x10-mr.png@
                token inputs:sourceColorSpace = "raw"
                float2 inputs:st.connect = </Table/Materials/Mat_green_17x10/Primvar.outputs:result>
                float outputs:g
            }
            def Shader "Normal"
            {
                uniform token info:id = "UsdUVTexture"
                asset inputs:file = @textures/green-17x10-normal.png@
                token inputs:sourceColorSpace = "raw"
                float4 inputs:scale = (2, 2, 2, 2)
                float4 inputs:bias = (-1, -1, -1, -1)
                float2 inputs:st.connect = </Table/Materials/Mat_green_17x10/Primvar.outputs:result>
                float3 outputs:rgb
            }
        }
        def Material "Mat_green_14x10"
        {
            token outputs:surface.connect = </Table/Materials/Mat_green_14x10/Preview.outputs:surface>
            def Shader "Preview"
            {
                uniform token info:id = "UsdPreviewSurface"
                color3f inputs:diffuseColor.connect = </Table/Materials/Mat_green_14x10/BaseColor.outputs:rgb>
                float inputs:metallic = 0
                float inputs:roughness.connect = </Table/Materials/Mat_green_14x10/MetalRough.outputs:g>
                normal3f inputs:normal.connect = </Table/Materials/Mat_green_14x10/Normal.outputs:rgb>
                token outputs:surface
            }
            def Shader "Primvar"
            {
                uniform token info:id = "UsdPrimvarReader_float2"
                token inputs:varname = "st"
                float2 outputs:result
            }
            def Shader "BaseColor"
            {
                uniform token info:id = "UsdUVTexture"
                asset inputs:file = @textures/green-14x10-base.png@
                token inputs:sourceColorSpace = "sRGB"
                float2 inputs:st.connect = </Table/Materials/Mat_green_14x10/Primvar.outputs:result>
                float3 outputs:rgb
            }
            def Shader "MetalRough"
            {
                uniform token info:id = "UsdUVTexture"
                asset inputs:file = @textures/green-14x10-mr.png@
                token inputs:sourceColorSpace = "raw"
                float2 inputs:st.connect = </Table/Materials/Mat_green_14x10/Primvar.outputs:result>
                float outputs:g
            }
            def Shader "Normal"
            {
                uniform token info:id = "UsdUVTexture"
                asset inputs:file = @textures/green-14x10-normal.png@
                token inputs:sourceColorSpace = "raw"
                float4 inputs:scale = (2, 2, 2, 2)
                float4 inputs:bias = (-1, -1, -1, -1)
                float2 inputs:st.connect = </Table/Materials/Mat_green_14x10/Primvar.outputs:result>
                float3 outputs:rgb
            }
        }
        def Material "Mat_green_17x2"
        {
            token outputs:surface.connect = </Table/Materials/Mat_green_17x2/Preview.outputs:surface>
            def Shader "Preview"
            {
                uniform token info:id = "UsdPreviewSurface"
                color3f inputs:diffuseColor.connect = </Table/Materials/Mat_green_17x2/BaseColor.outputs:rgb>
                float inputs:metallic = 0
                float inputs:roughness.connect = </Table/Materials/Mat_green_17x2/MetalRough.outputs:g>
                normal3f inputs:normal.connect = </Table/Materials/Mat_green_17x2/Normal.outputs:rgb>
                token outputs:surface
            }
            def Shader "Primvar"
            {
                uniform token info:id = "UsdPrimvarReader_float2"
                token inputs:varname = "st"
                float2 outputs:result
            }
            def Shader "BaseColor"
            {
                uniform token info:id = "UsdUVTexture"
                asset inputs:file = @textures/green-17x2-base.png@
                token inputs:sourceColorSpace = "sRGB"
                float2 inputs:st.connect = </Table/Materials/Mat_green_17x2/Primvar.outputs:result>
                float3 outputs:rgb
            }
            def Shader "MetalRough"
            {
                uniform token info:id = "UsdUVTexture"
                asset inputs:file = @textures/green-17x2-mr.png@
                token inputs:sourceColorSpace = "raw"
                float2 inputs:st.connect = </Table/Materials/Mat_green_17x2/Primvar.outputs:result>
                float outputs:g
            }
            def Shader "Normal"
            {
                uniform token info:id = "UsdUVTexture"
                asset inputs:file = @textures/green-17x2-normal.png@
                token inputs:sourceColorSpace = "raw"
                float4 inputs:scale = (2, 2, 2, 2)
                float4 inputs:bias = (-1, -1, -1, -1)
                float2 inputs:st.connect = </Table/Materials/Mat_green_17x2/Primvar.outputs:result>
                float3 outputs:rgb
            }
        }
        def Material "Mat_green_17x1"
        {
            token outputs:surface.connect = </Table/Materials/Mat_green_17x1/Preview.outputs:surface>
            def Shader "Preview"
            {
                uniform token info:id = "UsdPreviewSurface"
                color3f inputs:diffuseColor.connect = </Table/Materials/Mat_green_17x1/BaseColor.outputs:rgb>
                float inputs:metallic = 0
                float inputs:roughness.connect = </Table/Materials/Mat_green_17x1/MetalRough.outputs:g>
                normal3f inputs:normal.connect = </Table/Materials/Mat_green_17x1/Normal.outputs:rgb>
                token outputs:surface
            }
            def Shader "Primvar"
            {
                uniform token info:id = "UsdPrimvarReader_float2"
                token inputs:varname = "st"
                float2 outputs:result
            }
            def Shader "BaseColor"
            {
                uniform token info:id = "UsdUVTexture"
                asset inputs:file = @textures/green-17x1-base.png@
                token inputs:sourceColorSpace = "sRGB"
                float2 inputs:st.connect = </Table/Materials/Mat_green_17x1/Primvar.outputs:result>
                float3 outputs:rgb
            }
            def Shader "MetalRough"
            {
                uniform token info:id = "UsdUVTexture"
                asset inputs:file = @textures/green-17x1-mr.png@
                token inputs:sourceColorSpace = "raw"
                float2 inputs:st.connect = </Table/Materials/Mat_green_17x1/Primvar.outputs:result>
                float outputs:g
            }
            def Shader "Normal"
            {
                uniform token info:id = "UsdUVTexture"
                asset inputs:file = @textures/green-17x1-normal.png@
                token inputs:sourceColorSpace = "raw"
                float4 inputs:scale = (2, 2, 2, 2)
                float4 inputs:bias = (-1, -1, -1, -1)
                float2 inputs:st.connect = </Table/Materials/Mat_green_17x1/Primvar.outputs:result>
                float3 outputs:rgb
            }
        }
        def Material "Mat_green_2x5"
        {
            token outputs:surface.connect = </Table/Materials/Mat_green_2x5/Preview.outputs:surface>
            def Shader "Preview"
            {
                uniform token info:id = "UsdPreviewSurface"
                color3f inputs:diffuseColor.connect = </Table/Materials/Mat_green_2x5/BaseColor.outputs:rgb>
                float inputs:metallic = 0
                float inputs:roughness.connect = </Table/Materials/Mat_green_2x5/MetalRough.outputs:g>
                normal3f inputs:normal.connect = </Table/Materials/Mat_green_2x5/Normal.outputs:rgb>
                token outputs:surface
            }
            def Shader "Primvar"
            {
                uniform token info:id = "UsdPrimvarReader_float2"
                token inputs:varname = "st"
                float2 outputs:result
            }
            def Shader "BaseColor"
            {
                uniform token info:id = "UsdUVTexture"
                asset inputs:file = @textures/green-2x5-base.png@
                token inputs:sourceColorSpace = "sRGB"
                float2 inputs:st.connect = </Table/Materials/Mat_green_2x5/Primvar.outputs:result>
                float3 outputs:rgb
            }
            def Shader "MetalRough"
            {
                uniform token info:id = "UsdUVTexture"
                asset inputs:file = @textures/green-2x5-mr.png@
                token inputs:sourceColorSpace = "raw"
                float2 inputs:st.connect = </Table/Materials/Mat_green_2x5/Primvar.outputs:result>
                float outputs:g
            }
            def Shader "Normal"
            {
                uniform token info:id = "UsdUVTexture"
                asset inputs:file = @textures/green-2x5-normal.png@
                token inputs:sourceColorSpace = "raw"
                float4 inputs:scale = (2, 2, 2, 2)
                float4 inputs:bias = (-1, -1, -1, -1)
                float2 inputs:st.connect = </Table/Materials/Mat_green_2x5/Primvar.outputs:result>
                float3 outputs:rgb
            }
        }
        def Material "Mat_green_10x8"
        {
            token outputs:surface.connect = </Table/Materials/Mat_green_10x8/Preview.outputs:surface>
            def Shader "Preview"
            {
                uniform token info:id = "UsdPreviewSurface"
                color3f inputs:diffuseColor.connect = </Table/Materials/Mat_green_10x8/BaseColor.outputs:rgb>
                float inputs:metallic = 0
                float inputs:roughness.connect = </Table/Materials/Mat_green_10x8/MetalRough.outputs:g>
                normal3f inputs:normal.connect = </Table/Materials/Mat_green_10x8/Normal.outputs:rgb>
                token outputs:surface
            }
            def Shader "Primvar"
            {
                uniform token info:id = "UsdPrimvarReader_float2"
                token inputs:varname = "st"
                float2 outputs:result
            }
            def Shader "BaseColor"
            {
                uniform token info:id = "UsdUVTexture"
                asset inputs:file = @textures/green-10x8-base.png@
                token inputs:sourceColorSpace = "sRGB"
                float2 inputs:st.connect = </Table/Materials/Mat_green_10x8/Primvar.outputs:result>
                float3 outputs:rgb
            }
            def Shader "MetalRough"
            {
                uniform token info:id = "UsdUVTexture"
                asset inputs:file = @textures/green-10x8-mr.png@
                token inputs:sourceColorSpace = "raw"
                float2 inputs:st.connect = </Table/Materials/Mat_green_10x8/Primvar.outputs:result>
                float outputs:g
            }
            def Shader "Normal"
            {
                uniform token info:id = "UsdUVTexture"
                asset inputs:file = @textures/green-10x8-normal.png@
                token inputs:sourceColorSpace = "raw"
                float4 inputs:scale = (2, 2, 2, 2)
                float4 inputs:bias = (-1, -1, -1, -1)
                float2 inputs:st.connect = </Table/Materials/Mat_green_10x8/Primvar.outputs:result>
                float3 outputs:rgb
            }
        }
        def Material "Mat_green_10x5"
        {
            token outputs:surface.connect = </Table/Materials/Mat_green_10x5/Preview.outputs:surface>
            def Shader "Preview"
            {
                uniform token info:id = "UsdPreviewSurface"
                color3f inputs:diffuseColor.connect = </Table/Materials/Mat_green_10x5/BaseColor.outputs:rgb>
                float inputs:metallic = 0
                float inputs:roughness.connect = </Table/Materials/Mat_green_10x5/MetalRough.outputs:g>
                normal3f inputs:normal.connect = </Table/Materials/Mat_green_10x5/Normal.outputs:rgb>
                token outputs:surface
            }
            def Shader "Primvar"
            {
                uniform token info:id = "UsdPrimvarReader_float2"
                token inputs:varname = "st"
                float2 outputs:result
            }
            def Shader "BaseColor"
            {
                uniform token info:id = "UsdUVTexture"
                asset inputs:file = @textures/green-10x5-base.png@
                token inputs:sourceColorSpace = "sRGB"
                float2 inputs:st.connect = </Table/Materials/Mat_green_10x5/Primvar.outputs:result>
                float3 outputs:rgb
            }
            def Shader "MetalRough"
            {
                uniform token info:id = "UsdUVTexture"
                asset inputs:file = @textures/green-10x5-mr.png@
                token inputs:sourceColorSpace = "raw"
                float2 inputs:st.connect = </Table/Materials/Mat_green_10x5/Primvar.outputs:result>
                float outputs:g
            }
            def Shader "Normal"
            {
                uniform token info:id = "UsdUVTexture"
                asset inputs:file = @textures/green-10x5-normal.png@
                token inputs:sourceColorSpace = "raw"
                float4 inputs:scale = (2, 2, 2, 2)
                float4 inputs:bias = (-1, -1, -1, -1)
                float2 inputs:st.connect = </Table/Materials/Mat_green_10x5/Primvar.outputs:result>
                float3 outputs:rgb
            }
        }
    }

    def Mesh "M_00_Top_slab"
    {
        int[] faceVertexCounts = [
            3, 3, 3, 3, 3, 3, 3, 3, 3, 3, 3, 3, 3, 3, 3, 3, 3, 3,
            3, 3, 3, 3, 3, 3, 3, 3, 3, 3, 3, 3, 3, 3, 3, 3, 3, 3,
            3, 3, 3, 3, 3, 3, 3, 3, 3, 3, 3, 3, 3, 3, 3, 3, 3, 3,
            3, 3, 3, 3, 3, 3, 3, 3, 3, 3, 3, 3, 3, 3, 3, 3, 3, 3,
            3, 3, 3, 3, 3, 3, 3, 3
        ]
        int[] faceVertexIndices = [
            0, 1, 21, 0, 21, 20, 40, 1, 0, 41, 20, 21, 1, 2, 22, 1, 22, 21,
            40, 2, 1, 41, 21, 22, 2, 3, 23, 2, 23, 22, 40, 3, 2, 41, 22, 23,
            3, 4, 24, 3, 24, 23, 40, 4, 3, 41, 23, 24, 4, 5, 25, 4, 25, 24,
            40, 5, 4, 41, 24, 25, 5, 6, 26, 5, 26, 25, 40, 6, 5, 41, 25, 26,
            6, 7, 27, 6, 27, 26, 40, 7, 6, 41, 26, 27, 7, 8, 28, 7, 28, 27,
            40, 8, 7, 41, 27, 28, 8, 9, 29, 8, 29, 28, 40, 9, 8, 41, 28, 29,
            9, 10, 30, 9, 30, 29, 40, 10, 9, 41, 29, 30, 10, 11, 31, 10, 31, 30,
            40, 11, 10, 41, 30, 31, 11, 12, 32, 11, 32, 31, 40, 12, 11, 41, 31, 32,
            12, 13, 33, 12, 33, 32, 40, 13, 12, 41, 32, 33, 13, 14, 34, 13, 34, 33,
            40, 14, 13, 41, 33, 34, 14, 15, 35, 14, 35, 34, 40, 15, 14, 41, 34, 35,
            15, 16, 36, 15, 36, 35, 40, 16, 15, 41, 35, 36, 16, 17, 37, 16, 37, 36,
            40, 17, 16, 41, 36, 37, 17, 18, 38, 17, 38, 37, 40, 18, 17, 41, 37, 38,
            18, 19, 39, 18, 39, 38, 40, 19, 18, 41, 38, 39, 19, 0, 20, 19, 20, 39,
            40, 0, 19, 41, 39, 20
        ]
        point3f[] points = [
            (0.404250, 0.290000, 0.230250), (0.403565, 0.290000, 0.234576), (0.401576, 0.290000, 0.238479), (0.398479, 0.290000, 0.241576),
            (0.394576, 0.290000, 0.243565), (-0.390250, 0.290000, 0.244250), (-0.394576, 0.290000, 0.243565), (-0.398479, 0.290000, 0.241576),
            (-0.401576, 0.290000, 0.238479), (-0.403565, 0.290000, 0.234576), (-0.404250, 0.290000, -0.230250), (-0.403565, 0.290000, -0.234576),
            (-0.401576, 0.290000, -0.238479), (-0.398479, 0.290000, -0.241576), (-0.394576, 0.290000, -0.243565), (0.390250, 0.290000, -0.244250),
            (0.394576, 0.290000, -0.243565), (0.398479, 0.290000, -0.241576), (0.401576, 0.290000, -0.238479), (0.403565, 0.290000, -0.234576),
            (0.404250, 0.380000, 0.230250), (0.403565, 0.380000, 0.234576), (0.401576, 0.380000, 0.238479), (0.398479, 0.380000, 0.241576),
            (0.394576, 0.380000, 0.243565), (-0.390250, 0.380000, 0.244250), (-0.394576, 0.380000, 0.243565), (-0.398479, 0.380000, 0.241576),
            (-0.401576, 0.380000, 0.238479), (-0.403565, 0.380000, 0.234576), (-0.404250, 0.380000, -0.230250), (-0.403565, 0.380000, -0.234576),
            (-0.401576, 0.380000, -0.238479), (-0.398479, 0.380000, -0.241576), (-0.394576, 0.380000, -0.243565), (0.390250, 0.380000, -0.244250),
            (0.394576, 0.380000, -0.243565), (0.398479, 0.380000, -0.241576), (0.401576, 0.380000, -0.238479), (0.403565, 0.380000, -0.234576),
            (0.000000, 0.290000, 0.000000), (0.000000, 0.380000, 0.000000)
        ]
        normal3f[] normals = [
            (-0.721896, 0.689709, -0.056279), (-0.702980, 0.673533, -0.228412), (-0.597990, 0.673533, -0.434465), (-0.434465, 0.673533, -0.597990),
            (-0.176062, 0.658226, -0.731943), (0.056491, 0.689773, -0.721818), (0.228412, 0.673533, -0.702980), (0.434465, 0.673533, -0.597990),
            (0.597990, 0.673533, -0.434465), (0.731841, 0.658283, -0.176270), (0.721896, 0.689709, 0.056279), (0.702980, 0.673533, 0.228412),
            (0.597990, 0.673533, 0.434465), (0.434465, 0.673533, 0.597990), (0.176062, 0.658226, 0.731943), (-0.056491, 0.689773, 0.721818),
            (-0.228412, 0.673533, 0.702980), (-0.434465, 0.673533, 0.597990), (-0.597990, 0.673533, 0.434465), (-0.731841, 0.658283, 0.176270),
            (-0.721896, -0.689709, -0.056279), (-0.702980, -0.673533, -0.228412), (-0.597990, -0.673533, -0.434465), (-0.434465, -0.673533, -0.597990),
            (-0.176062, -0.658226, -0.731943), (0.056491, -0.689773, -0.721818), (0.228412, -0.673533, -0.702980), (0.434465, -0.673533, -0.597990),
            (0.597990, -0.673533, -0.434465), (0.731841, -0.658283, -0.176270), (0.721896, -0.689709, 0.056279), (0.702980, -0.673533, 0.228412),
            (0.597990, -0.673533, 0.434465), (0.434465, -0.673533, 0.597990), (0.176062, -0.658226, 0.731943), (-0.056491, -0.689773, 0.721818),
            (-0.228412, -0.673533, 0.702980), (-0.434465, -0.673533, 0.597990), (-0.597990, -0.673533, 0.434465), (-0.731841, -0.658283, 0.176270),
            (0.000000, 1.000000, 0.000000), (0.000000, -1.000000, 0.000000)
        ] (
            interpolation = "vertex"
        )
        uniform token subdivisionScheme = "none"
        rel material:binding = </Table/Materials/Grout>
    }

    def Mesh "M_01_Bottom_shelf"
    {
        int[] faceVertexCounts = [
            3, 3, 3, 3, 3, 3, 3, 3, 3, 3, 3, 3, 3, 3, 3, 3, 3, 3,
            3, 3, 3, 3, 3, 3, 3, 3, 3, 3, 3, 3, 3, 3, 3, 3, 3, 3,
            3, 3, 3, 3, 3, 3, 3, 3, 3, 3, 3, 3, 3, 3, 3, 3, 3, 3,
            3, 3, 3, 3, 3, 3, 3, 3, 3, 3, 3, 3, 3, 3, 3, 3, 3, 3,
            3, 3, 3, 3, 3, 3, 3, 3
        ]
        int[] faceVertexIndices = [
            0, 1, 21, 0, 21, 20, 40, 1, 0, 41, 20, 21, 1, 2, 22, 1, 22, 21,
            40, 2, 1, 41, 21, 22, 2, 3, 23, 2, 23, 22, 40, 3, 2, 41, 22, 23,
            3, 4, 24, 3, 24, 23, 40, 4, 3, 41, 23, 24, 4, 5, 25, 4, 25, 24,
            40, 5, 4, 41, 24, 25, 5, 6, 26, 5, 26, 25, 40, 6, 5, 41, 25, 26,
            6, 7, 27, 6, 27, 26, 40, 7, 6, 41, 26, 27, 7, 8, 28, 7, 28, 27,
            40, 8, 7, 41, 27, 28, 8, 9, 29, 8, 29, 28, 40, 9, 8, 41, 28, 29,
            9, 10, 30, 9, 30, 29, 40, 10, 9, 41, 29, 30, 10, 11, 31, 10, 31, 30,
            40, 11, 10, 41, 30, 31, 11, 12, 32, 11, 32, 31, 40, 12, 11, 41, 31, 32,
            12, 13, 33, 12, 33, 32, 40, 13, 12, 41, 32, 33, 13, 14, 34, 13, 34, 33,
            40, 14, 13, 41, 33, 34, 14, 15, 35, 14, 35, 34, 40, 15, 14, 41, 34, 35,
            15, 16, 36, 15, 36, 35, 40, 16, 15, 41, 35, 36, 16, 17, 37, 16, 37, 36,
            40, 17, 16, 41, 36, 37, 17, 18, 38, 17, 38, 37, 40, 18, 17, 41, 37, 38,
            18, 19, 39, 18, 39, 38, 40, 19, 18, 41, 38, 39, 19, 0, 20, 19, 20, 39,
            40, 0, 19, 41, 39, 20
        ]
        point3f[] points = [
            (0.404250, 0.000000, 0.233250), (0.403712, 0.000000, 0.236649), (0.402149, 0.000000, 0.239716), (0.399716, 0.000000, 0.242149),
            (0.396649, 0.000000, 0.243712), (-0.393250, 0.000000, 0.244250), (-0.396649, 0.000000, 0.243712), (-0.399716, 0.000000, 0.242149),
            (-0.402149, 0.000000, 0.239716), (-0.403712, 0.000000, 0.236649), (-0.404250, 0.000000, -0.233250), (-0.403712, 0.000000, -0.236649),
            (-0.402149, 0.000000, -0.239716), (-0.399716, 0.000000, -0.242149), (-0.396649, 0.000000, -0.243712), (0.393250, 0.000000, -0.244250),
            (0.396649, 0.000000, -0.243712), (0.399716, 0.000000, -0.242149), (0.402149, 0.000000, -0.239716), (0.403712, 0.000000, -0.236649),
            (0.404250, 0.068000, 0.233250), (0.403712, 0.068000, 0.236649), (0.402149, 0.068000, 0.239716), (0.399716, 0.068000, 0.242149),
            (0.396649, 0.068000, 0.243712), (-0.393250, 0.068000, 0.244250), (-0.396649, 0.068000, 0.243712), (-0.399716, 0.068000, 0.242149),
            (-0.402149, 0.068000, 0.239716), (-0.403712, 0.068000, 0.236649), (-0.404250, 0.068000, -0.233250), (-0.403712, 0.068000, -0.236649),
            (-0.402149, 0.068000, -0.239716), (-0.399716, 0.068000, -0.242149), (-0.396649, 0.068000, -0.243712), (0.393250, 0.068000, -0.244250),
            (0.396649, 0.068000, -0.243712), (0.399716, 0.068000, -0.242149), (0.402149, 0.068000, -0.239716), (0.403712, 0.068000, -0.236649),
            (0.000000, 0.000000, 0.000000), (0.000000, 0.068000, 0.000000)
        ]
        normal3f[] normals = [
            (-0.721854, 0.689744, -0.056395), (-0.702980, 0.673533, -0.228412), (-0.597990, 0.673533, -0.434465), (-0.434465, 0.673533, -0.597990),
            (-0.175996, 0.658208, -0.731975), (0.056559, 0.689794, -0.721794), (0.228412, 0.673533, -0.702980), (0.434465, 0.673533, -0.597990),
            (0.597990, 0.673533, -0.434465), (0.731897, 0.658252, -0.176156), (0.721854, 0.689744, 0.056395), (0.702980, 0.673533, 0.228412),
            (0.597990, 0.673533, 0.434465), (0.434465, 0.673533, 0.597990), (0.175996, 0.658208, 0.731975), (-0.056559, 0.689794, 0.721794),
            (-0.228412, 0.673533, 0.702980), (-0.434465, 0.673533, 0.597990), (-0.597990, 0.673533, 0.434465), (-0.731897, 0.658252, 0.176156),
            (-0.721854, -0.689744, -0.056395), (-0.702980, -0.673533, -0.228412), (-0.597990, -0.673533, -0.434465), (-0.434465, -0.673533, -0.597990),
            (-0.175996, -0.658208, -0.731975), (0.056559, -0.689794, -0.721794), (0.228412, -0.673533, -0.702980), (0.434465, -0.673533, -0.597990),
            (0.597990, -0.673533, -0.434465), (0.731897, -0.658252, -0.176156), (0.721854, -0.689744, 0.056395), (0.702980, -0.673533, 0.228412),
            (0.597990, -0.673533, 0.434465), (0.434465, -0.673533, 0.597990), (0.175996, -0.658208, 0.731975), (-0.056559, -0.689794, 0.721794),
            (-0.228412, -0.673533, 0.702980), (-0.434465, -0.673533, 0.597990), (-0.597990, -0.673533, 0.434465), (-0.731897, -0.658252, 0.176156),
            (0.000000, 1.000000, 0.000000), (0.000000, -1.000000, 0.000000)
        ] (
            interpolation = "vertex"
        )
        uniform token subdivisionScheme = "none"
        rel material:binding = </Table/Materials/Grout>
    }

    def Mesh "M_02_Left_support"
    {
        int[] faceVertexCounts = [
            3, 3, 3, 3, 3, 3, 3, 3, 3, 3, 3, 3, 3, 3, 3, 3, 3, 3,
            3, 3, 3, 3, 3, 3, 3, 3, 3, 3, 3, 3, 3, 3, 3, 3, 3, 3,
            3, 3, 3, 3, 3, 3, 3, 3, 3, 3, 3, 3, 3, 3, 3, 3, 3, 3,
            3, 3, 3, 3, 3, 3, 3, 3, 3, 3, 3, 3, 3, 3, 3, 3, 3, 3,
            3, 3, 3, 3, 3, 3, 3, 3
        ]
        int[] faceVertexIndices = [
            0, 1, 21, 0, 21, 20, 40, 1, 0, 41, 20, 21, 1, 2, 22, 1, 22, 21,
            40, 2, 1, 41, 21, 22, 2, 3, 23, 2, 23, 22, 40, 3, 2, 41, 22, 23,
            3, 4, 24, 3, 24, 23, 40, 4, 3, 41, 23, 24, 4, 5, 25, 4, 25, 24,
            40, 5, 4, 41, 24, 25, 5, 6, 26, 5, 26, 25, 40, 6, 5, 41, 25, 26,
            6, 7, 27, 6, 27, 26, 40, 7, 6, 41, 26, 27, 7, 8, 28, 7, 28, 27,
            40, 8, 7, 41, 27, 28, 8, 9, 29, 8, 29, 28, 40, 9, 8, 41, 28, 29,
            9, 10, 30, 9, 30, 29, 40, 10, 9, 41, 29, 30, 10, 11, 31, 10, 31, 30,
            40, 11, 10, 41, 30, 31, 11, 12, 32, 11, 32, 31, 40, 12, 11, 41, 31, 32,
            12, 13, 33, 12, 33, 32, 40, 13, 12, 41, 32, 33, 13, 14, 34, 13, 34, 33,
            40, 14, 13, 41, 33, 34, 14, 15, 35, 14, 35, 34, 40, 15, 14, 41, 34, 35,
            15, 16, 36, 15, 36, 35, 40, 16, 15, 41, 35, 36, 16, 17, 37, 16, 37, 36,
            40, 17, 16, 41, 36, 37, 17, 18, 38, 17, 38, 37, 40, 18, 17, 41, 37, 38,
            18, 19, 39, 18, 39, 38, 40, 19, 18, 41, 38, 39, 19, 0, 20, 19, 20, 39,
            40, 0, 19, 41, 39, 20
        ]
        point3f[] points = [
            (-0.325000, 0.068000, 0.235250), (-0.325440, 0.068000, 0.238031), (-0.326719, 0.068000, 0.240540), (-0.328710, 0.068000, 0.242531),
            (-0.331219, 0.068000, 0.243810), (-0.396000, 0.068000, 0.244250), (-0.398781, 0.068000, 0.243810), (-0.401290, 0.068000, 0.242531),
            (-0.403281, 0.068000, 0.240540), (-0.404560, 0.068000, 0.238031), (-0.405000, 0.068000, -0.235250), (-0.404560, 0.068000, -0.238031),
            (-0.403281, 0.068000, -0.240540), (-0.401290, 0.068000, -0.242531), (-0.398781, 0.068000, -0.243810), (-0.334000, 0.068000, -0.244250),
            (-0.331219, 0.068000, -0.243810), (-0.328710, 0.068000, -0.242531), (-0.326719, 0.068000, -0.240540), (-0.325440, 0.068000, -0.238031),
            (-0.325000, 0.290000, 0.235250), (-0.325440, 0.290000, 0.238031), (-0.326719, 0.290000, 0.240540), (-0.328710, 0.290000, 0.242531),
            (-0.331219, 0.290000, 0.243810), (-0.396000, 0.290000, 0.244250), (-0.398781, 0.290000, 0.243810), (-0.401290, 0.290000, 0.242531),
            (-0.403281, 0.290000, 0.240540), (-0.404560, 0.290000, 0.238031), (-0.405000, 0.290000, -0.235250), (-0.404560, 0.290000, -0.238031),
            (-0.403281, 0.290000, -0.240540), (-0.401290, 0.290000, -0.242531), (-0.398781, 0.290000, -0.243810), (-0.334000, 0.290000, -0.244250),
            (-0.331219, 0.290000, -0.243810), (-0.328710, 0.290000, -0.242531), (-0.326719, 0.290000, -0.240540), (-0.325440, 0.290000, -0.238031),
            (-0.365000, 0.068000, 0.000000), (-0.365000, 0.290000, 0.000000)
        ]
        normal3f[] normals = [
            (-0.721826, 0.689767, -0.056471), (-0.702980, 0.673533, -0.228412), (-0.597990, 0.673533, -0.434465), (-0.434465, 0.673533, -0.597990),
            (-0.178113, 0.658790, -0.730939), (0.054397, 0.689140, -0.722583), (0.228412, 0.673533, -0.702980), (0.434465, 0.673533, -0.597990),
            (0.597990, 0.673533, -0.434465), (0.731933, 0.658232, -0.176082), (0.721826, 0.689767, 0.056471), (0.702980, 0.673533, 0.228412),
            (0.597990, 0.673533, 0.434465), (0.434465, 0.673533, 0.597990), (0.178113, 0.658790, 0.730939), (-0.054397, 0.689140, 0.722583),
            (-0.228412, 0.673533, 0.702980), (-0.434465, 0.673533, 0.597990), (-0.597990, 0.673533, 0.434465), (-0.731933, 0.658232, 0.176082),
            (-0.721826, -0.689767, -0.056471), (-0.702980, -0.673533, -0.228412), (-0.597990, -0.673533, -0.434465), (-0.434465, -0.673533, -0.597990),
            (-0.178113, -0.658790, -0.730939), (0.054397, -0.689140, -0.722583), (0.228412, -0.673533, -0.702980), (0.434465, -0.673533, -0.597990),
            (0.597990, -0.673533, -0.434465), (0.731933, -0.658232, -0.176082), (0.721826, -0.689767, 0.056471), (0.702980, -0.673533, 0.228412),
            (0.597990, -0.673533, 0.434465), (0.434465, -0.673533, 0.597990), (0.178113, -0.658790, 0.730939), (-0.054397, -0.689140, 0.722583),
            (-0.228412, -0.673533, 0.702980), (-0.434465, -0.673533, 0.597990), (-0.597990, -0.673533, 0.434465), (-0.731933, -0.658232, 0.176082),
            (0.000000, 1.000000, 0.000000), (0.000000, -1.000000, 0.000000)
        ] (
            interpolation = "vertex"
        )
        uniform token subdivisionScheme = "none"
        rel material:binding = </Table/Materials/Grout>
    }

    def Mesh "M_03_Right_support"
    {
        int[] faceVertexCounts = [
            3, 3, 3, 3, 3, 3, 3, 3, 3, 3, 3, 3, 3, 3, 3, 3, 3, 3,
            3, 3, 3, 3, 3, 3, 3, 3, 3, 3, 3, 3, 3, 3, 3, 3, 3, 3,
            3, 3, 3, 3, 3, 3, 3, 3, 3, 3, 3, 3, 3, 3, 3, 3, 3, 3,
            3, 3, 3, 3, 3, 3, 3, 3, 3, 3, 3, 3, 3, 3, 3, 3, 3, 3,
            3, 3, 3, 3, 3, 3, 3, 3
        ]
        int[] faceVertexIndices = [
            0, 1, 21, 0, 21, 20, 40, 1, 0, 41, 20, 21, 1, 2, 22, 1, 22, 21,
            40, 2, 1, 41, 21, 22, 2, 3, 23, 2, 23, 22, 40, 3, 2, 41, 22, 23,
            3, 4, 24, 3, 24, 23, 40, 4, 3, 41, 23, 24, 4, 5, 25, 4, 25, 24,
            40, 5, 4, 41, 24, 25, 5, 6, 26, 5, 26, 25, 40, 6, 5, 41, 25, 26,
            6, 7, 27, 6, 27, 26, 40, 7, 6, 41, 26, 27, 7, 8, 28, 7, 28, 27,
            40, 8, 7, 41, 27, 28, 8, 9, 29, 8, 29, 28, 40, 9, 8, 41, 28, 29,
            9, 10, 30, 9, 30, 29, 40, 10, 9, 41, 29, 30, 10, 11, 31, 10, 31, 30,
            40, 11, 10, 41, 30, 31, 11, 12, 32, 11, 32, 31, 40, 12, 11, 41, 31, 32,
            12, 13, 33, 12, 33, 32, 40, 13, 12, 41, 32, 33, 13, 14, 34, 13, 34, 33,
            40, 14, 13, 41, 33, 34, 14, 15, 35, 14, 35, 34, 40, 15, 14, 41, 34, 35,
            15, 16, 36, 15, 36, 35, 40, 16, 15, 41, 35, 36, 16, 17, 37, 16, 37, 36,
            40, 17, 16, 41, 36, 37, 17, 18, 38, 17, 38, 37, 40, 18, 17, 41, 37, 38,
            18, 19, 39, 18, 39, 38, 40, 19, 18, 41, 38, 39, 19, 0, 20, 19, 20, 39,
            40, 0, 19, 41, 39, 20
        ]
        point3f[] points = [
            (0.405000, 0.068000, 0.235250), (0.404560, 0.068000, 0.238031), (0.403281, 0.068000, 0.240540), (0.401290, 0.068000, 0.242531),
            (0.398781, 0.068000, 0.243810), (0.334000, 0.068000, 0.244250), (0.331219, 0.068000, 0.243810), (0.328710, 0.068000, 0.242531),
            (0.326719, 0.068000, 0.240540), (0.325440, 0.068000, 0.238031), (0.325000, 0.068000, -0.235250), (0.325440, 0.068000, -0.238031),
            (0.326719, 0.068000, -0.240540), (0.328710, 0.068000, -0.242531), (0.331219, 0.068000, -0.243810), (0.396000, 0.068000, -0.244250),
            (0.398781, 0.068000, -0.243810), (0.401290, 0.068000, -0.242531), (0.403281, 0.068000, -0.240540), (0.404560, 0.068000, -0.238031),
            (0.405000, 0.290000, 0.235250), (0.404560, 0.290000, 0.238031), (0.403281, 0.290000, 0.240540), (0.401290, 0.290000, 0.242531),
            (0.398781, 0.290000, 0.243810), (0.334000, 0.290000, 0.244250), (0.331219, 0.290000, 0.243810), (0.328710, 0.290000, 0.242531),
            (0.326719, 0.290000, 0.240540), (0.325440, 0.290000, 0.238031), (0.325000, 0.290000, -0.235250), (0.325440, 0.290000, -0.238031),
            (0.326719, 0.290000, -0.240540), (0.328710, 0.290000, -0.242531), (0.331219, 0.290000, -0.243810), (0.396000, 0.290000, -0.244250),
            (0.398781, 0.290000, -0.243810), (0.401290, 0.290000, -0.242531), (0.403281, 0.290000, -0.240540), (0.404560, 0.290000, -0.238031),
            (0.365000, 0.068000, 0.000000), (0.365000, 0.290000, 0.000000)
        ]
        normal3f[] normals = [
            (-0.721826, 0.689767, -0.056471), (-0.702980, 0.673533, -0.228412), (-0.597990, 0.673533, -0.434465), (-0.434465, 0.673533, -0.597990),
            (-0.178113, 0.658790, -0.730939), (0.054397, 0.689140, -0.722583), (0.228412, 0.673533, -0.702980), (0.434465, 0.673533, -0.597990),
            (0.597990, 0.673533, -0.434465), (0.731933, 0.658232, -0.176082), (0.721826, 0.689767, 0.056471), (0.702980, 0.673533, 0.228412),
            (0.597990, 0.673533, 0.434465), (0.434465, 0.673533, 0.597990), (0.178113, 0.658790, 0.730939), (-0.054397, 0.689140, 0.722583),
            (-0.228412, 0.673533, 0.702980), (-0.434465, 0.673533, 0.597990), (-0.597990, 0.673533, 0.434465), (-0.731933, 0.658232, 0.176082),
            (-0.721826, -0.689767, -0.056471), (-0.702980, -0.673533, -0.228412), (-0.597990, -0.673533, -0.434465), (-0.434465, -0.673533, -0.597990),
            (-0.178113, -0.658790, -0.730939), (0.054397, -0.689140, -0.722583), (0.228412, -0.673533, -0.702980), (0.434465, -0.673533, -0.597990),
            (0.597990, -0.673533, -0.434465), (0.731933, -0.658232, -0.176082), (0.721826, -0.689767, 0.056471), (0.702980, -0.673533, 0.228412),
            (0.597990, -0.673533, 0.434465), (0.434465, -0.673533, 0.597990), (0.178113, -0.658790, 0.730939), (-0.054397, -0.689140, 0.722583),
            (-0.228412, -0.673533, 0.702980), (-0.434465, -0.673533, 0.597990), (-0.597990, -0.673533, 0.434465), (-0.731933, -0.658232, 0.176082),
            (0.000000, 1.000000, 0.000000), (0.000000, -1.000000, 0.000000)
        ] (
            interpolation = "vertex"
        )
        uniform token subdivisionScheme = "none"
        rel material:binding = </Table/Materials/Grout>
    }

    def Mesh "M_04_Wood_core"
    {
        int[] faceVertexCounts = [
            3, 3, 3, 3, 3, 3, 3, 3, 3, 3, 3, 3, 3, 3, 3, 3, 3, 3,
            3, 3, 3, 3, 3, 3, 3, 3, 3, 3, 3, 3, 3, 3, 3, 3, 3, 3,
            3, 3, 3, 3, 3, 3, 3, 3, 3, 3, 3, 3, 3, 3, 3, 3, 3, 3,
            3, 3, 3, 3, 3, 3, 3, 3, 3, 3, 3, 3, 3, 3, 3, 3, 3, 3,
            3, 3, 3, 3, 3, 3, 3, 3
        ]
        int[] faceVertexIndices = [
            0, 1, 21, 0, 21, 20, 40, 1, 0, 41, 20, 21, 1, 2, 22, 1, 22, 21,
            40, 2, 1, 41, 21, 22, 2, 3, 23, 2, 23, 22, 40, 3, 2, 41, 22, 23,
            3, 4, 24, 3, 24, 23, 40, 4, 3, 41, 23, 24, 4, 5, 25, 4, 25, 24,
            40, 5, 4, 41, 24, 25, 5, 6, 26, 5, 26, 25, 40, 6, 5, 41, 25, 26,
            6, 7, 27, 6, 27, 26, 40, 7, 6, 41, 26, 27, 7, 8, 28, 7, 28, 27,
            40, 8, 7, 41, 27, 28, 8, 9, 29, 8, 29, 28, 40, 9, 8, 41, 28, 29,
            9, 10, 30, 9, 30, 29, 40, 10, 9, 41, 29, 30, 10, 11, 31, 10, 31, 30,
            40, 11, 10, 41, 30, 31, 11, 12, 32, 11, 32, 31, 40, 12, 11, 41, 31, 32,
            12, 13, 33, 12, 33, 32, 40, 13, 12, 41, 32, 33, 13, 14, 34, 13, 34, 33,
            40, 14, 13, 41, 33, 34, 14, 15, 35, 14, 35, 34, 40, 15, 14, 41, 34, 35,
            15, 16, 36, 15, 36, 35, 40, 16, 15, 41, 35, 36, 16, 17, 37, 16, 37, 36,
            40, 17, 16, 41, 36, 37, 17, 18, 38, 17, 38, 37, 40, 18, 17, 41, 37, 38,
            18, 19, 39, 18, 39, 38, 40, 19, 18, 41, 38, 39, 19, 0, 20, 19, 20, 39,
            40, 0, 19, 41, 39, 20
        ]
        point3f[] points = [
            (0.395000, 0.300000, 0.227000), (0.394608, 0.300000, 0.229472), (0.393472, 0.300000, 0.231702), (0.391702, 0.300000, 0.233472),
            (0.389472, 0.300000, 0.234608), (-0.387000, 0.300000, 0.235000), (-0.389472, 0.300000, 0.234608), (-0.391702, 0.300000, 0.233472),
            (-0.393472, 0.300000, 0.231702), (-0.394608, 0.300000, 0.229472), (-0.395000, 0.300000, -0.227000), (-0.394608, 0.300000, -0.229472),
            (-0.393472, 0.300000, -0.231702), (-0.391702, 0.300000, -0.233472), (-0.389472, 0.300000, -0.234608), (0.387000, 0.300000, -0.235000),
            (0.389472, 0.300000, -0.234608), (0.391702, 0.300000, -0.233472), (0.393472, 0.300000, -0.231702), (0.394608, 0.300000, -0.229472),
            (0.395000, 0.370000, 0.227000), (0.394608, 0.370000, 0.229472), (0.393472, 0.370000, 0.231702), (0.391702, 0.370000, 0.233472),
            (0.389472, 0.370000, 0.234608), (-0.387000, 0.370000, 0.235000), (-0.389472, 0.370000, 0.234608), (-0.391702, 0.370000, 0.233472),
            (-0.393472, 0.370000, 0.231702), (-0.394608, 0.370000, 0.229472), (-0.395000, 0.370000, -0.227000), (-0.394608, 0.370000, -0.229472),
            (-0.393472, 0.370000, -0.231702), (-0.391702, 0.370000, -0.233472), (-0.389472, 0.370000, -0.234608), (0.387000, 0.370000, -0.235000),
            (0.389472, 0.370000, -0.234608), (0.391702, 0.370000, -0.233472), (0.393472, 0.370000, -0.231702), (0.394608, 0.370000, -0.229472),
            (0.000000, 0.300000, 0.000000), (0.000000, 0.370000, 0.000000)
        ]
        normal3f[] normals = [
            (-0.721816, 0.689775, -0.056497), (-0.702980, 0.673533, -0.228412), (-0.597990, 0.673533, -0.434465), (-0.434465, 0.673533, -0.597990),
            (-0.175934, 0.658191, -0.732005), (0.056621, 0.689813, -0.721771), (0.228412, 0.673533, -0.702980), (0.434465, 0.673533, -0.597990),
            (0.597990, 0.673533, -0.434465), (0.731946, 0.658225, -0.176057), (0.721816, 0.689775, 0.056497), (0.702980, 0.673533, 0.228412),
            (0.597990, 0.673533, 0.434465), (0.434465, 0.673533, 0.597990), (0.175934, 0.658191, 0.732005), (-0.056621, 0.689813, 0.721771),
            (-0.228412, 0.673533, 0.702980), (-0.434465, 0.673533, 0.597990), (-0.597990, 0.673533, 0.434465), (-0.731946, 0.658225, 0.176057),
            (-0.721816, -0.689775, -0.056497), (-0.702980, -0.673533, -0.228412), (-0.597990, -0.673533, -0.434465), (-0.434465, -0.673533, -0.597990),
            (-0.175934, -0.658191, -0.732005), (0.056621, -0.689813, -0.721771), (0.228412, -0.673533, -0.702980), (0.434465, -0.673533, -0.597990),
            (0.597990, -0.673533, -0.434465), (0.731946, -0.658225, -0.176057), (0.721816, -0.689775, 0.056497), (0.702980, -0.673533, 0.228412),
            (0.597990, -0.673533, 0.434465), (0.434465, -0.673533, 0.597990), (0.175934, -0.658191, 0.732005), (-0.056621, -0.689813, 0.721771),
            (-0.228412, -0.673533, 0.702980), (-0.434465, -0.673533, 0.597990), (-0.597990, -0.673533, 0.434465), (-0.731946, -0.658225, 0.176057),
            (0.000000, 1.000000, 0.000000), (0.000000, -1.000000, 0.000000)
        ] (
            interpolation = "vertex"
        )
        uniform token subdivisionScheme = "none"
        rel material:binding = </Table/Materials/Wood>
    }

    def Mesh "M_05_Top_surface"
    {
        int[] faceVertexCounts = [
            3, 3
        ]
        int[] faceVertexIndices = [
            2, 1, 0, 3, 2, 0
        ]
        point3f[] points = [
            (-0.405000, 0.380800, -0.245000), (0.405000, 0.380800, -0.245000), (0.405000, 0.380800, 0.245000), (-0.405000, 0.380800, 0.245000)
        ]
        normal3f[] normals = [
            (0.000000, 1.000000, 0.000000), (0.000000, 1.000000, 0.000000), (0.000000, 1.000000, 0.000000), (0.000000, 1.000000, 0.000000)
        ] (
            interpolation = "vertex"
        )
        uniform token subdivisionScheme = "none"
        rel material:binding = </Table/Materials/Mat_green_17x10>
        texCoord2f[] primvars:st = [
            (0.000000, 0.000000), (1.000000, 0.000000), (1.000000, 1.000000), (0.000000, 1.000000)
        ] (
            interpolation = "vertex"
        )
    }

    def Mesh "M_06_Shelf_surface"
    {
        int[] faceVertexCounts = [
            3, 3
        ]
        int[] faceVertexIndices = [
            2, 1, 0, 3, 2, 0
        ]
        point3f[] points = [
            (-0.325000, 0.068800, -0.245000), (0.325000, 0.068800, -0.245000), (0.325000, 0.068800, 0.245000), (-0.325000, 0.068800, 0.245000)
        ]
        normal3f[] normals = [
            (0.000000, 1.000000, 0.000000), (0.000000, 1.000000, 0.000000), (0.000000, 1.000000, 0.000000), (0.000000, 1.000000, 0.000000)
        ] (
            interpolation = "vertex"
        )
        uniform token subdivisionScheme = "none"
        rel material:binding = </Table/Materials/Mat_green_14x10>
        texCoord2f[] primvars:st = [
            (0.000000, 0.000000), (1.000000, 0.000000), (1.000000, 1.000000), (0.000000, 1.000000)
        ] (
            interpolation = "vertex"
        )
    }

    def Mesh "M_07_Inner_ceiling"
    {
        int[] faceVertexCounts = [
            3, 3
        ]
        int[] faceVertexIndices = [
            0, 1, 2, 0, 2, 3
        ]
        point3f[] points = [
            (-0.325000, 0.289200, -0.245000), (0.325000, 0.289200, -0.245000), (0.325000, 0.289200, 0.245000), (-0.325000, 0.289200, 0.245000)
        ]
        normal3f[] normals = [
            (0.000000, -1.000000, 0.000000), (0.000000, -1.000000, 0.000000), (0.000000, -1.000000, 0.000000), (0.000000, -1.000000, 0.000000)
        ] (
            interpolation = "vertex"
        )
        uniform token subdivisionScheme = "none"
        rel material:binding = </Table/Materials/Mat_green_14x10>
        texCoord2f[] primvars:st = [
            (0.000000, 0.000000), (1.000000, 0.000000), (1.000000, 1.000000), (0.000000, 1.000000)
        ] (
            interpolation = "vertex"
        )
    }

    def Mesh "M_08_Bottom_underside"
    {
        int[] faceVertexCounts = [
            3, 3
        ]
        int[] faceVertexIndices = [
            0, 1, 2, 0, 2, 3
        ]
        point3f[] points = [
            (-0.405000, -0.000800, -0.245000), (0.405000, -0.000800, -0.245000), (0.405000, -0.000800, 0.245000), (-0.405000, -0.000800, 0.245000)
        ]
        normal3f[] normals = [
            (0.000000, -1.000000, 0.000000), (0.000000, -1.000000, 0.000000), (0.000000, -1.000000, 0.000000), (0.000000, -1.000000, 0.000000)
        ] (
            interpolation = "vertex"
        )
        uniform token subdivisionScheme = "none"
        rel material:binding = </Table/Materials/Mat_green_17x10>
        texCoord2f[] primvars:st = [
            (0.000000, 0.000000), (1.000000, 0.000000), (1.000000, 1.000000), (0.000000, 1.000000)
        ] (
            interpolation = "vertex"
        )
    }

    def Mesh "M_09_Front_top_band"
    {
        int[] faceVertexCounts = [
            3, 3
        ]
        int[] faceVertexIndices = [
            2, 1, 0, 3, 2, 0
        ]
        point3f[] points = [
            (-0.405000, 0.290000, -0.245800), (0.405000, 0.290000, -0.245800), (0.405000, 0.380000, -0.245800), (-0.405000, 0.380000, -0.245800)
        ]
        normal3f[] normals = [
            (0.000000, 0.000000, -1.000000), (0.000000, 0.000000, -1.000000), (0.000000, 0.000000, -1.000000), (0.000000, 0.000000, -1.000000)
        ] (
            interpolation = "vertex"
        )
        uniform token subdivisionScheme = "none"
        rel material:binding = </Table/Materials/Mat_green_17x2>
        texCoord2f[] primvars:st = [
            (0.000000, 0.000000), (1.000000, 0.000000), (1.000000, 1.000000), (0.000000, 1.000000)
        ] (
            interpolation = "vertex"
        )
    }

    def Mesh "M_10_Front_bottom_band"
    {
        int[] faceVertexCounts = [
            3, 3
        ]
        int[] faceVertexIndices = [
            2, 1, 0, 3, 2, 0
        ]
        point3f[] points = [
            (-0.405000, 0.000000, -0.245800), (0.405000, 0.000000, -0.245800), (0.405000, 0.068000, -0.245800), (-0.405000, 0.068000, -0.245800)
        ]
        normal3f[] normals = [
            (0.000000, 0.000000, -1.000000), (0.000000, 0.000000, -1.000000), (0.000000, 0.000000, -1.000000), (0.000000, 0.000000, -1.000000)
        ] (
            interpolation = "vertex"
        )
        uniform token subdivisionScheme = "none"
        rel material:binding = </Table/Materials/Mat_green_17x1>
        texCoord2f[] primvars:st = [
            (0.000000, 0.000000), (1.000000, 0.000000), (1.000000, 1.000000), (0.000000, 1.000000)
        ] (
            interpolation = "vertex"
        )
    }

    def Mesh "M_11_Front_left_column"
    {
        int[] faceVertexCounts = [
            3, 3
        ]
        int[] faceVertexIndices = [
            2, 1, 0, 3, 2, 0
        ]
        point3f[] points = [
            (-0.405000, 0.068000, -0.245800), (-0.325000, 0.068000, -0.245800), (-0.325000, 0.290000, -0.245800), (-0.405000, 0.290000, -0.245800)
        ]
        normal3f[] normals = [
            (0.000000, 0.000000, -1.000000), (0.000000, 0.000000, -1.000000), (0.000000, 0.000000, -1.000000), (0.000000, 0.000000, -1.000000)
        ] (
            interpolation = "vertex"
        )
        uniform token subdivisionScheme = "none"
        rel material:binding = </Table/Materials/Mat_green_2x5>
        texCoord2f[] primvars:st = [
            (0.000000, 0.000000), (1.000000, 0.000000), (1.000000, 1.000000), (0.000000, 1.000000)
        ] (
            interpolation = "vertex"
        )
    }

    def Mesh "M_12_Front_right_column"
    {
        int[] faceVertexCounts = [
            3, 3
        ]
        int[] faceVertexIndices = [
            2, 1, 0, 3, 2, 0
        ]
        point3f[] points = [
            (0.325000, 0.068000, -0.245800), (0.405000, 0.068000, -0.245800), (0.405000, 0.290000, -0.245800), (0.325000, 0.290000, -0.245800)
        ]
        normal3f[] normals = [
            (0.000000, 0.000000, -1.000000), (0.000000, 0.000000, -1.000000), (0.000000, 0.000000, -1.000000), (0.000000, 0.000000, -1.000000)
        ] (
            interpolation = "vertex"
        )
        uniform token subdivisionScheme = "none"
        rel material:binding = </Table/Materials/Mat_green_2x5>
        texCoord2f[] primvars:st = [
            (0.000000, 0.000000), (1.000000, 0.000000), (1.000000, 1.000000), (0.000000, 1.000000)
        ] (
            interpolation = "vertex"
        )
    }

    def Mesh "M_13_Back_top_band"
    {
        int[] faceVertexCounts = [
            3, 3
        ]
        int[] faceVertexIndices = [
            0, 1, 2, 0, 2, 3
        ]
        point3f[] points = [
            (-0.405000, 0.290000, 0.245800), (0.405000, 0.290000, 0.245800), (0.405000, 0.380000, 0.245800), (-0.405000, 0.380000, 0.245800)
        ]
        normal3f[] normals = [
            (0.000000, 0.000000, 1.000000), (0.000000, 0.000000, 1.000000), (0.000000, 0.000000, 1.000000), (0.000000, 0.000000, 1.000000)
        ] (
            interpolation = "vertex"
        )
        uniform token subdivisionScheme = "none"
        rel material:binding = </Table/Materials/Mat_green_17x2>
        texCoord2f[] primvars:st = [
            (0.000000, 0.000000), (1.000000, 0.000000), (1.000000, 1.000000), (0.000000, 1.000000)
        ] (
            interpolation = "vertex"
        )
    }

    def Mesh "M_14_Back_bottom_band"
    {
        int[] faceVertexCounts = [
            3, 3
        ]
        int[] faceVertexIndices = [
            0, 1, 2, 0, 2, 3
        ]
        point3f[] points = [
            (-0.405000, 0.000000, 0.245800), (0.405000, 0.000000, 0.245800), (0.405000, 0.068000, 0.245800), (-0.405000, 0.068000, 0.245800)
        ]
        normal3f[] normals = [
            (0.000000, 0.000000, 1.000000), (0.000000, 0.000000, 1.000000), (0.000000, 0.000000, 1.000000), (0.000000, 0.000000, 1.000000)
        ] (
            interpolation = "vertex"
        )
        uniform token subdivisionScheme = "none"
        rel material:binding = </Table/Materials/Mat_green_17x1>
        texCoord2f[] primvars:st = [
            (0.000000, 0.000000), (1.000000, 0.000000), (1.000000, 1.000000), (0.000000, 1.000000)
        ] (
            interpolation = "vertex"
        )
    }

    def Mesh "M_15_Back_left_column"
    {
        int[] faceVertexCounts = [
            3, 3
        ]
        int[] faceVertexIndices = [
            0, 1, 2, 0, 2, 3
        ]
        point3f[] points = [
            (-0.405000, 0.068000, 0.245800), (-0.325000, 0.068000, 0.245800), (-0.325000, 0.290000, 0.245800), (-0.405000, 0.290000, 0.245800)
        ]
        normal3f[] normals = [
            (0.000000, 0.000000, 1.000000), (0.000000, 0.000000, 1.000000), (0.000000, 0.000000, 1.000000), (0.000000, 0.000000, 1.000000)
        ] (
            interpolation = "vertex"
        )
        uniform token subdivisionScheme = "none"
        rel material:binding = </Table/Materials/Mat_green_2x5>
        texCoord2f[] primvars:st = [
            (0.000000, 0.000000), (1.000000, 0.000000), (1.000000, 1.000000), (0.000000, 1.000000)
        ] (
            interpolation = "vertex"
        )
    }

    def Mesh "M_16_Back_right_column"
    {
        int[] faceVertexCounts = [
            3, 3
        ]
        int[] faceVertexIndices = [
            0, 1, 2, 0, 2, 3
        ]
        point3f[] points = [
            (0.325000, 0.068000, 0.245800), (0.405000, 0.068000, 0.245800), (0.405000, 0.290000, 0.245800), (0.325000, 0.290000, 0.245800)
        ]
        normal3f[] normals = [
            (0.000000, 0.000000, 1.000000), (0.000000, 0.000000, 1.000000), (0.000000, 0.000000, 1.000000), (0.000000, 0.000000, 1.000000)
        ] (
            interpolation = "vertex"
        )
        uniform token subdivisionScheme = "none"
        rel material:binding = </Table/Materials/Mat_green_2x5>
        texCoord2f[] primvars:st = [
            (0.000000, 0.000000), (1.000000, 0.000000), (1.000000, 1.000000), (0.000000, 1.000000)
        ] (
            interpolation = "vertex"
        )
    }

    def Mesh "M_17_Outer_left"
    {
        int[] faceVertexCounts = [
            3, 3
        ]
        int[] faceVertexIndices = [
            0, 1, 2, 0, 2, 3
        ]
        point3f[] points = [
            (-0.405800, 0.000000, -0.245000), (-0.405800, 0.000000, 0.245000), (-0.405800, 0.380000, 0.245000), (-0.405800, 0.380000, -0.245000)
        ]
        normal3f[] normals = [
            (-1.000000, 0.000000, 0.000000), (-1.000000, 0.000000, 0.000000), (-1.000000, 0.000000, 0.000000), (-1.000000, 0.000000, 0.000000)
        ] (
            interpolation = "vertex"
        )
        uniform token subdivisionScheme = "none"
        rel material:binding = </Table/Materials/Mat_green_10x8>
        texCoord2f[] primvars:st = [
            (0.000000, 0.000000), (1.000000, 0.000000), (1.000000, 1.000000), (0.000000, 1.000000)
        ] (
            interpolation = "vertex"
        )
    }

    def Mesh "M_18_Outer_right"
    {
        int[] faceVertexCounts = [
            3, 3
        ]
        int[] faceVertexIndices = [
            2, 1, 0, 3, 2, 0
        ]
        point3f[] points = [
            (0.405800, 0.000000, -0.245000), (0.405800, 0.000000, 0.245000), (0.405800, 0.380000, 0.245000), (0.405800, 0.380000, -0.245000)
        ]
        normal3f[] normals = [
            (1.000000, 0.000000, 0.000000), (1.000000, 0.000000, 0.000000), (1.000000, 0.000000, 0.000000), (1.000000, 0.000000, 0.000000)
        ] (
            interpolation = "vertex"
        )
        uniform token subdivisionScheme = "none"
        rel material:binding = </Table/Materials/Mat_green_10x8>
        texCoord2f[] primvars:st = [
            (0.000000, 0.000000), (1.000000, 0.000000), (1.000000, 1.000000), (0.000000, 1.000000)
        ] (
            interpolation = "vertex"
        )
    }

    def Mesh "M_19_Inner_left"
    {
        int[] faceVertexCounts = [
            3, 3
        ]
        int[] faceVertexIndices = [
            2, 1, 0, 3, 2, 0
        ]
        point3f[] points = [
            (-0.324200, 0.068000, -0.245000), (-0.324200, 0.068000, 0.245000), (-0.324200, 0.290000, 0.245000), (-0.324200, 0.290000, -0.245000)
        ]
        normal3f[] normals = [
            (1.000000, 0.000000, 0.000000), (1.000000, 0.000000, 0.000000), (1.000000, 0.000000, 0.000000), (1.000000, 0.000000, 0.000000)
        ] (
            interpolation = "vertex"
        )
        uniform token subdivisionScheme = "none"
        rel material:binding = </Table/Materials/Mat_green_10x5>
        texCoord2f[] primvars:st = [
            (0.000000, 0.000000), (1.000000, 0.000000), (1.000000, 1.000000), (0.000000, 1.000000)
        ] (
            interpolation = "vertex"
        )
    }

    def Mesh "M_20_Inner_right"
    {
        int[] faceVertexCounts = [
            3, 3
        ]
        int[] faceVertexIndices = [
            0, 1, 2, 0, 2, 3
        ]
        point3f[] points = [
            (0.324200, 0.068000, -0.245000), (0.324200, 0.068000, 0.245000), (0.324200, 0.290000, 0.245000), (0.324200, 0.290000, -0.245000)
        ]
        normal3f[] normals = [
            (-1.000000, 0.000000, 0.000000), (-1.000000, 0.000000, 0.000000), (-1.000000, 0.000000, 0.000000), (-1.000000, 0.000000, 0.000000)
        ] (
            interpolation = "vertex"
        )
        uniform token subdivisionScheme = "none"
        rel material:binding = </Table/Materials/Mat_green_10x5>
        texCoord2f[] primvars:st = [
            (0.000000, 0.000000), (1.000000, 0.000000), (1.000000, 1.000000), (0.000000, 1.000000)
        ] (
            interpolation = "vertex"
        )
    }

}
